<?xml version="1.0" encoding="UTF-8"?>
<!DOCTYPE svg PUBLIC "-//W3C//DTD SVG 1.1//EN" "http://www.w3.org/Graphics/SVG/1.1/DTD/svg11.dtd">
<!-- Creator: CorelDRAW 2019 (64-Bit) -->
<svg xmlns="http://www.w3.org/2000/svg" xml:space="preserve" width="183.893mm" height="128.916mm" version="1.1" style="shape-rendering:geometricPrecision; text-rendering:geometricPrecision; image-rendering:optimizeQuality; fill-rule:evenodd; clip-rule:evenodd"
viewBox="0 0 183.8922 128.9154"
 xmlns:xlink="http://www.w3.org/1999/xlink"
 xmlns:xodm="http://www.corel.com/coreldraw/odm/2003">
 <defs>
  <style type="text/css">
   <![CDATA[
    .fil0 {fill:#E42526}
    .fil3 {fill:#F8DC24}
    .fil4 {fill:#58585A}
    .fil2 {fill:black}
    .fil1 {fill:white}
   ]]>
  </style>
 </defs>
 <g id="Layer_x0020_1">
  <metadata id="CorelCorpID_0Corel-Layer"/>
  <g id="_806620672">
   <path class="fil0" d="M71.5107 11.375c21.3587,-11.3432 44.3528,-13.6942 63.1572,-9.2999 42.8201,10.1175 46.1928,42.3091 23.4027,75.5228 -10.4244,15.2275 -25.856,29.8414 -44.4554,39.0391 -30.5563,15.1248 -59.7844,15.9425 -78.9976,4.292 -19.3147,-11.6504 -23.9139,-31.2717 -17.0663,-52.1198 7.051,-21.6655 26.7751,-43.9442 53.9594,-57.4343z"/>
   <path class="fil1" d="M138.7556 36.0042c-0.1021,1.2266 -0.1021,2.4528 0.1022,3.6789 0.2044,1.3289 0.5109,2.7595 1.0216,4.088 0.7152,1.942 1.738,3.6789 2.8618,5.1101 1.0217,1.3285 2.2477,2.3501 3.6792,3.1676 1.7368,0.7155 3.3727,1.1245 4.7008,1.0222 1.1237,0 1.9424,-0.3067 2.5553,-0.8176 0.4086,-0.4086 0.7152,-1.0221 0.8173,-1.8393 0.2044,-1.1243 0,-2.5549 -0.3065,-4.3948 -0.1022,-0.5108 -0.2044,-0.9198 -0.3065,-1.4306 -0.1022,-0.4085 -0.3065,-0.9199 -0.4087,-1.3284 -0.9194,-2.3505 -2.1466,-4.4965 -3.679,-6.1318 -1.3294,-1.4307 -2.964,-2.4528 -4.702,-2.9636 -1.8391,-0.5113 -3.3715,-0.5113 -4.4965,-0.1023 -0.7152,0.3064 -1.3281,0.8177 -1.6346,1.6352l-0.2044 0.3064zm-0.8172 -28.819l0 0c9.095,-3.3727 18.0879,-2.6573 25.7526,1.1238 7.9712,3.8836 14.4099,11.1397 17.7825,20.2351 1.9425,5.1096 2.6575,10.4238 2.3499,15.4316 -0.3065,5.1096 -1.6347,10.0152 -4.0879,14.4095 -0.1022,0.2046 -0.2031,0.5113 -0.5107,0.9198 -0.2044,0.4087 -0.4087,0.7154 -0.5109,0.92 -3.6792,6.0293 -7.4604,10.4237 -11.2418,13.5917 -3.8833,3.1682 -7.6647,5.212 -11.4459,6.6432 -9.2993,3.4744 -18.4978,2.759 -26.2634,-1.0222 -8.1763,-3.9857 -14.7169,-11.1396 -18.0891,-20.3371 -1.8397,-5.0074 -2.7596,-10.0153 -2.5551,-14.8186 0.2045,-4.905 1.3285,-9.6062 3.4744,-14.0005 1.6353,-3.2703 4.1904,-7.0516 7.563,-10.6287 2.9635,-3.1677 6.5402,-6.2336 10.5262,-8.891 1.0217,-0.7152 2.1455,-1.3283 3.2705,-1.9419 1.5324,-0.613 2.7584,-1.2261 3.9857,-1.6347z"/>
   <path class="fil1" d="M95.4245 23.9452l15.5339 -5.8255c1.4308,-0.5108 2.9636,0.2045 3.4744,1.6352 0,0.1023 0.1023,0.1023 0.1023,0.2046l22.0739 58.9672c0.2043,0.3063 0.3065,0.7153 0.3065,1.124 0.1022,0.8175 -0.2043,1.6351 -0.8172,2.1459l-7.2561 7.2562c-0.3065,0.3067 -0.613,0.5108 -1.0217,0.613l-12.7745 4.7011c-0.8176,0.3068 -1.7375,0.2045 -2.4529,-0.3067l-14.4095 -9.6063 2.7596 7.2557c0.2041,0.409 0.4086,0.9198 0.4086,1.4311 0,0.7154 -0.3068,1.4307 -0.8177,1.8393l-7.256 7.2561c-0.3064,0.3063 -0.6131,0.5108 -0.9195,0.6131l-15.6361 5.825c-1.4305,0.5113 -2.9635,-0.2041 -3.4749,-1.6348l-22.2786 -59.5802c-0.4086,-1.1245 -0.1024,-2.3507 0.8174,-3.0659l7.0518 -7.0517c0.3068,-0.3067 0.613,-0.5108 1.0221,-0.6131l13.592 -5.0079c0.8175,-0.3062 1.7374,-0.2039 2.4528,0.3069l13.2856 8.6867 -2.4529 -6.5408c-0.4089,-1.0221 -0.1022,-2.1459 0.6132,-2.8613l7.1537 -7.2561c0.3064,-0.2046 0.6131,-0.4085 0.9198,-0.5108z"/>
   <path class="fil1" d="M42.4868 121.5421c-6.1317,0.6135 -11.4459,-0.5108 -16.0448,-3.27 -6.2339,-3.6793 -10.8328,-10.1174 -14.0009,-18.3956l-12.2635 -32.907c-0.4087,-1.1239 -0.1023,-2.3505 0.8176,-3.0658l7.0517 -7.0517c0.3066,-0.3062 0.6128,-0.5108 0.9198,-0.6129l15.6356 -5.8251c1.4312,-0.5113 2.964,0.2041 3.4749,1.6347l12.5704 33.6227c0.7151,1.9415 1.7369,3.7813 3.1679,5.0074 1.0217,0.9198 2.3507,1.5329 3.9854,1.6352 0.3068,0 0.7154,0 1.0221,0 0,-0.6131 -0.1022,-1.2262 -0.2044,-1.8393 -0.2041,-0.9198 -0.4085,-1.8397 -0.8177,-2.8618l-12.5698 -33.6222c-0.409,-1.1244 -0.1023,-2.3505 0.8175,-3.0659l6.8471 -6.847c0.3065,-0.4091 0.7154,-0.7153 1.2263,-0.9199l15.6361 -5.8254c1.4306,-0.5108 2.9635,0.2044 3.4744,1.6352l12.468 33.3158c1.942,5.1102 2.8618,10.0153 2.7598,14.6141 -0.1024,4.5988 -1.1246,8.8913 -3.2705,12.7748 -1.7374,3.0659 -5.0079,6.234 -8.2778,9.4017 -0.7154,0.7157 -1.533,1.4311 -2.1465,2.0442l-0.1019 0.1023c-1.2266,1.3284 -2.6572,2.5546 -4.1901,3.5766 -5.212,3.679 -11.446,6.0295 -17.9867,6.7449z"/>
   <polygon class="fil2" points="114.1262,92.2118 92.7672,78.0069 98.4905,93.5407 98.5927,93.5407 91.3366,100.6941 75.7004,106.6219 53.4218,47.0415 60.678,39.7854 74.3721,34.778 94.5047,47.9613 89.1907,33.7559 96.3439,26.5003 111.8778,20.6748 134.2592,80.2551 127.0032,87.5108 "/>
   <path class="fil2" d="M138.96 9.7398c17.0663,-6.3363 33.9294,3.2704 40.0604,19.7242 3.5769,9.5039 2.8619,19.7236 -1.5324,27.7973 -0.2043,0.5108 -0.5109,1.0217 -0.8187,1.5328 -7.0504,11.6504 -14.3065,16.4532 -21.3583,19.1106 -17.577,6.5403 -34.6443,-3.2703 -40.8783,-19.724 -3.4744,-9.4017 -3.168,-18.5994 0.8176,-26.673 2.8615,-5.825 9.0955,-13.1834 17.1687,-18.4975 1.9424,-1.3284 4.1899,-2.4528 6.541,-3.2704zm-2.8618 25.7536l0 0c-0.3065,2.9636 0.1022,6.1317 1.3281,9.1976 1.6359,4.2919 4.3955,7.8692 7.9725,9.8106 4.2921,1.8397 8.0733,1.7376 10.1166,-0.2039 1.7381,-1.6352 2.1468,-4.5994 1.2259,-8.7892 -0.2043,-1.1243 -0.5107,-2.1459 -0.9193,-3.168 -1.9412,-5.1097 -5.5181,-9.5045 -10.2189,-10.7307 -4.5985,-1.2261 -8.279,-0.1022 -9.4027,3.5767 0,0.1023 -0.1022,0.2046 -0.1022,0.3069z"/>
   <polygon class="fil2" points="86.8401,62.0641 98.4905,93.5407 82.8544,99.3658 60.678,39.7854 74.3721,34.778 107.5857,56.4436 96.3439,26.5003 111.8778,20.6748 134.2592,80.2551 121.3821,84.9562 "/>
   <polygon class="fil1" points="82.6497,56.8521 95.9354,92.3141 84.0805,96.7089 63.3348,41.012 74.0652,37.0262 111.6738,61.6556 99.0012,27.7264 110.6518,23.3321 131.6018,79.0285 121.5865,82.7079 "/>
   <polygon class="fil3" points="100.8409,28.544 109.8341,25.1713 129.6594,78.2113 121.7907,81.0727 79.7885,53.1733 94.0957,91.4965 85.0003,94.8692 65.1745,41.9318 73.8612,38.6615 114.5351,65.2321 "/>
   <path class="fil2" d="M138.96 9.7398c17.0663,-6.3363 33.9294,3.2704 40.0604,19.7242 6.1324,16.4531 -0.3065,34.8488 -17.2706,41.1846 -17.0676,6.3362 -33.9294,-3.27 -40.061,-19.7237 -6.2339,-16.5559 0.2042,-34.8488 17.2712,-41.1851zm5.6202 15.023l0 0c-8.5841,3.1682 -10.1166,11.9568 -7.1539,19.9283 2.964,7.8692 9.8115,13.4897 18.4978,10.322 8.5842,-3.2704 10.1179,-11.9573 7.1539,-19.9288 -3.0662,-7.8687 -9.9123,-13.4895 -18.4978,-10.3215z"/>
   <path class="fil1" d="M139.6752 11.6818c15.9424,-5.9277 31.6805,3.0658 37.5063,18.5997 5.7223,15.4317 -0.2044,32.6001 -16.1468,38.6301 -15.9437,5.9272 -31.6806,-3.1682 -37.5065,-18.5996 -5.7228,-15.534 0.1022,-32.703 16.147,-38.6302zm4.1899 11.1391l0 0c-9.7081,3.5772 -11.7526,13.5925 -8.38,22.5854 3.3727,8.9931 11.344,15.1249 21.1541,11.5482 9.7093,-3.6788 11.7539,-13.5918 8.38,-22.4831 -3.4737,-8.9932 -11.4449,-15.2273 -21.1541,-11.6505z"/>
   <path class="fil3" d="M143.3542 21.4925c10.1179,-3.7813 19.1109,2.2482 22.8921,12.3658 3.7814,10.1174 0.9196,20.5411 -9.1972,24.3224 -10.1178,3.7816 -19.2129,-2.2484 -22.9942,-12.3653 -3.7811,-10.0158 -0.8171,-20.5418 9.2994,-24.3229zm-3.1683 -8.4823l0 0c-15.0225,5.5187 -20.9498,21.6656 -15.2271,36.6881 5.6214,15.023 20.7451,23.1984 35.6673,17.6803 14.8173,-5.5186 20.8474,-21.6655 15.226,-36.6885 -5.6202,-15.0226 -20.7455,-23.3008 -35.6662,-17.6799z"/>
   <path class="fil2" d="M40.8516 118.9875c-12.2635,0.7153 -20.9498,-7.1539 -25.7531,-20.1327l-12.2635 -32.9075 7.1533 -7.2554 15.6362 -5.8256 12.5704 33.6228c1.6352,4.292 4.5987,8.0732 9.6061,8.2777 1.4313,0.1023 3.3728,-0.1023 3.7812,-1.9415 0.1024,-2.1465 -0.3063,-4.2926 -1.1239,-6.3362l-12.5703 -33.6228 7.2563 -7.2556 15.5338 -5.8254 12.4679 33.3159c3.5767,9.6066 3.5767,18.1912 -0.3066,25.1404 -1.8397,3.2699 -6.2341,7.1534 -9.9131,10.8324 -5.6209,5.9277 -14.1032,9.5044 -22.0746,9.9134z"/>
   <path class="fil2" d="M61.3934 108.0525l0.1023 0.2046 -3.2705 1.2261c-0.1022,0 -0.2045,0.1023 -0.2045,0.1023 -0.1023,0 -0.2047,0.1023 -0.3065,0.1023l-3.2702 1.2261 -0.1024 -0.2045c-15.6361,4.0879 -26.3666,-4.0875 -31.9875,-19.1107l-12.2635 -32.9067 15.6362 -5.8256 12.5704 33.6228c1.6351,4.292 4.5986,8.0732 9.606,8.2777 1.4307,0.1023 2.9636,-0.2045 4.2926,-0.7154 1.4308,-0.5108 2.759,-1.3284 3.7812,-2.3505 3.5768,-3.3726 3.3721,-8.1755 1.7373,-12.468l-12.6723 -33.6222 15.6361 -5.8254 12.4679 33.3159c5.6206,15.1253 2.8616,27.8995 -11.7525,34.9511z"/>
   <path class="fil1" d="M58.736 107.0304l-1.3284 0.5108c-0.1023,0 -0.2044,0.1023 -0.3067,0.1023 -0.1023,0 -0.2042,0.1023 -0.3065,0.1023l-1.3288 0.5113c-15.5334,4.9051 -25.8553,-2.5551 -31.2717,-17.2715l-11.5483 -30.9653 11.7529 -4.3942 11.8544 31.6806c1.942,5.1097 5.6208,9.4022 11.4464,9.6063 1.7369,0.1022 3.4745,-0.2041 5.1096,-0.8177 1.6352,-0.6131 3.2705,-1.5329 4.4965,-2.7591 4.1904,-3.9857 4.1904,-9.6067 2.2484,-14.7163l-11.8545 -31.6807 11.7521 -4.3943 11.7527 31.3739c5.5186,14.7163 2.5551,26.673 -12.468,33.1115z"/>
   <path class="fil3" d="M14.4854 60.8379l9.0954 -3.3727 11.3436 30.3523c3.7812,10.0153 11.7528,12.0591 18.3952,9.6067 6.6432,-2.555 11.446,-9.2999 7.5624,-19.3151l-11.3435 -30.3522 9.0954 -3.3727 11.2419 30.0455c4.4965,11.9572 4.4965,25.0381 -12.979,31.8853 -0.1023,0 -0.2044,0.1022 -0.3067,0.1022 -0.1023,0 -0.2045,0.1023 -0.3068,0.1023 -17.1686,6.1318 -26.2645,-3.679 -30.8632,-15.943l-10.9346 -29.7387z"/>
   <path class="fil4" d="M91.5412 34.1649l5.6203 -5.7231 3.1682 8.4823 -5.6205 5.7231 -3.168 -8.4823zm4.1897 11.3436l0 0 1.2266 3.1682 5.6205 -5.7233 -1.2262 -3.168 -5.6209 5.7231z"/>
   <path class="fil4" d="M40.2385 53.3777l5.6209 -5.7231 3.1681 8.4823 -5.6209 5.7231 -3.1681 -8.4823zm4.1902 11.3436l0 0 1.2263 3.1681 5.6208 -5.723 -1.2266 -3.1682 -5.6205 5.7231z"/>
   <path class="fil4" d="M12.2366 85.5692l5.6209 -5.7231 3.1683 8.4823 -5.6211 5.7231 -3.1681 -8.4823zm4.2926 11.3438l0 0 1.2261 3.168 5.7233 -5.7226c-0.4092,-0.9199 -0.7154,-1.8398 -1.1245,-2.7597l-0.2041 -0.4085 -5.6208 5.7228z"/>
   <path class="fil4" d="M151.5299 32.4275l5.7236 -5.7233c2.0433,1.6353 3.7813,3.9858 5.0073,6.6432l-5.6216 5.6204c-1.226,-2.4524 -2.9627,-4.8029 -5.1093,-6.5403zm6.3366 9.2999l0 0c0.4086,1.1239 0.715,2.2482 0.9194,3.2703l0 0.1018 5.4159 -5.4164c-0.2042,-1.2261 -0.4086,-2.3505 -0.8173,-3.5767l-5.518 5.621z"/>
  </g>
 </g>
</svg>
